<mxfile host="app.diagrams.net" modified="2022-04-04T19:53:37.580Z" agent="5.0 (Windows NT 10.0; Win64; x64) AppleWebKit/537.36 (KHTML, like Gecko) Chrome/99.0.4844.84 Safari/537.36" etag="fg1aTk9rUajOGqTrqhVp" version="17.3.0" type="github">
  <diagram id="nZSB4Murl1Hl1DL9vQNt" name="Page-1">
    <mxGraphModel dx="1422" dy="727" grid="1" gridSize="10" guides="1" tooltips="1" connect="1" arrows="1" fold="1" page="1" pageScale="1" pageWidth="850" pageHeight="1100" math="0" shadow="0">
      <root>
        <mxCell id="0" />
        <mxCell id="1" parent="0" />
        <mxCell id="5viS-5EumuLUKx2FRzl0-1" value="" style="rounded=0;whiteSpace=wrap;html=1;" vertex="1" parent="1">
          <mxGeometry x="10" y="120" width="830" height="870" as="geometry" />
        </mxCell>
        <mxCell id="5viS-5EumuLUKx2FRzl0-2" value="" style="rounded=0;whiteSpace=wrap;html=1;" vertex="1" parent="1">
          <mxGeometry x="10" y="990" width="830" height="100" as="geometry" />
        </mxCell>
        <mxCell id="5viS-5EumuLUKx2FRzl0-3" value="" style="rounded=0;whiteSpace=wrap;html=1;" vertex="1" parent="1">
          <mxGeometry x="10" y="20" width="830" height="100" as="geometry" />
        </mxCell>
        <mxCell id="5viS-5EumuLUKx2FRzl0-4" value="" style="whiteSpace=wrap;html=1;aspect=fixed;" vertex="1" parent="1">
          <mxGeometry x="20" y="30" width="80" height="80" as="geometry" />
        </mxCell>
        <mxCell id="5viS-5EumuLUKx2FRzl0-5" value="LOGO" style="text;html=1;strokeColor=none;fillColor=none;align=center;verticalAlign=middle;whiteSpace=wrap;rounded=0;" vertex="1" parent="1">
          <mxGeometry x="30" y="55" width="60" height="30" as="geometry" />
        </mxCell>
        <mxCell id="5viS-5EumuLUKx2FRzl0-6" value="" style="rounded=0;whiteSpace=wrap;html=1;" vertex="1" parent="1">
          <mxGeometry x="750" y="70" width="80" height="40" as="geometry" />
        </mxCell>
        <mxCell id="5viS-5EumuLUKx2FRzl0-7" value="LOG IN" style="text;html=1;strokeColor=none;fillColor=none;align=center;verticalAlign=middle;whiteSpace=wrap;rounded=0;" vertex="1" parent="1">
          <mxGeometry x="765" y="80" width="50" height="20" as="geometry" />
        </mxCell>
        <mxCell id="5viS-5EumuLUKx2FRzl0-8" value="" style="rounded=0;whiteSpace=wrap;html=1;" vertex="1" parent="1">
          <mxGeometry x="610" y="70" width="130" height="40" as="geometry" />
        </mxCell>
        <mxCell id="5viS-5EumuLUKx2FRzl0-9" value="CREATE ACCOUNT" style="text;html=1;strokeColor=none;fillColor=none;align=center;verticalAlign=middle;whiteSpace=wrap;rounded=0;" vertex="1" parent="1">
          <mxGeometry x="617.5" y="80" width="115" height="20" as="geometry" />
        </mxCell>
        <mxCell id="5viS-5EumuLUKx2FRzl0-10" value="" style="rounded=0;whiteSpace=wrap;html=1;" vertex="1" parent="1">
          <mxGeometry x="30" y="140" width="790" height="250" as="geometry" />
        </mxCell>
        <mxCell id="5viS-5EumuLUKx2FRzl0-11" value="Paragraph with information about the site. this will load as the default screen if there is no user logged in" style="text;html=1;strokeColor=none;fillColor=none;align=center;verticalAlign=middle;whiteSpace=wrap;rounded=0;" vertex="1" parent="1">
          <mxGeometry x="140" y="250" width="570" height="30" as="geometry" />
        </mxCell>
        <mxCell id="5viS-5EumuLUKx2FRzl0-12" value="" style="rounded=0;whiteSpace=wrap;html=1;" vertex="1" parent="1">
          <mxGeometry x="30" y="410" width="790" height="560" as="geometry" />
        </mxCell>
        <mxCell id="5viS-5EumuLUKx2FRzl0-13" value="NEW USER" style="text;html=1;strokeColor=none;fillColor=none;align=center;verticalAlign=middle;whiteSpace=wrap;rounded=0;" vertex="1" parent="1">
          <mxGeometry x="375" y="475" width="100" height="30" as="geometry" />
        </mxCell>
        <mxCell id="5viS-5EumuLUKx2FRzl0-14" value="" style="rounded=0;whiteSpace=wrap;html=1;" vertex="1" parent="1">
          <mxGeometry x="365" y="550" width="275" height="30" as="geometry" />
        </mxCell>
        <mxCell id="5viS-5EumuLUKx2FRzl0-15" value="" style="rounded=0;whiteSpace=wrap;html=1;" vertex="1" parent="1">
          <mxGeometry x="365" y="610" width="275" height="30" as="geometry" />
        </mxCell>
        <mxCell id="5viS-5EumuLUKx2FRzl0-16" value="" style="rounded=0;whiteSpace=wrap;html=1;" vertex="1" parent="1">
          <mxGeometry x="365" y="670" width="275" height="30" as="geometry" />
        </mxCell>
        <mxCell id="5viS-5EumuLUKx2FRzl0-17" value="" style="rounded=0;whiteSpace=wrap;html=1;" vertex="1" parent="1">
          <mxGeometry x="365" y="730" width="275" height="30" as="geometry" />
        </mxCell>
        <mxCell id="5viS-5EumuLUKx2FRzl0-19" value="NAME" style="text;html=1;strokeColor=none;fillColor=none;align=center;verticalAlign=middle;whiteSpace=wrap;rounded=0;" vertex="1" parent="1">
          <mxGeometry x="300" y="550" width="50" height="30" as="geometry" />
        </mxCell>
        <mxCell id="5viS-5EumuLUKx2FRzl0-20" value="EMAIL" style="text;html=1;strokeColor=none;fillColor=none;align=center;verticalAlign=middle;whiteSpace=wrap;rounded=0;" vertex="1" parent="1">
          <mxGeometry x="300" y="610" width="50" height="30" as="geometry" />
        </mxCell>
        <mxCell id="5viS-5EumuLUKx2FRzl0-21" value="CONFIRM EMAIL" style="text;html=1;strokeColor=none;fillColor=none;align=center;verticalAlign=middle;whiteSpace=wrap;rounded=0;" vertex="1" parent="1">
          <mxGeometry x="240" y="670" width="110" height="30" as="geometry" />
        </mxCell>
        <mxCell id="5viS-5EumuLUKx2FRzl0-22" value="PASSWORD" style="text;html=1;strokeColor=none;fillColor=none;align=center;verticalAlign=middle;whiteSpace=wrap;rounded=0;" vertex="1" parent="1">
          <mxGeometry x="270" y="730" width="80" height="30" as="geometry" />
        </mxCell>
        <mxCell id="5viS-5EumuLUKx2FRzl0-23" value="" style="rounded=0;whiteSpace=wrap;html=1;" vertex="1" parent="1">
          <mxGeometry x="365" y="790" width="275" height="30" as="geometry" />
        </mxCell>
        <mxCell id="5viS-5EumuLUKx2FRzl0-24" value="CONFIRM PASSWORD" style="text;html=1;strokeColor=none;fillColor=none;align=center;verticalAlign=middle;whiteSpace=wrap;rounded=0;" vertex="1" parent="1">
          <mxGeometry x="210" y="790" width="140" height="30" as="geometry" />
        </mxCell>
        <mxCell id="5viS-5EumuLUKx2FRzl0-25" value="" style="rounded=0;whiteSpace=wrap;html=1;" vertex="1" parent="1">
          <mxGeometry x="360" y="865" width="130" height="40" as="geometry" />
        </mxCell>
        <mxCell id="5viS-5EumuLUKx2FRzl0-26" value="CREATE ACCOUNT" style="text;html=1;strokeColor=none;fillColor=none;align=center;verticalAlign=middle;whiteSpace=wrap;rounded=0;" vertex="1" parent="1">
          <mxGeometry x="367.5" y="875" width="115" height="20" as="geometry" />
        </mxCell>
      </root>
    </mxGraphModel>
  </diagram>
</mxfile>
